<?xml version="1.0"?>
<svg width="200" height="200" xmlns="http://www.w3.org/2000/svg" xmlns:svg="http://www.w3.org/2000/svg">
 <!-- Created with SVG-edit - http://svg-edit.googlecode.com/ -->
 <g>
  <title>Layer 1</title>
  <polygon transform="rotate(-38.5677490234375 96.6667098999024,93.10015869140626) " stroke-width="5" stroke="#000000" points="96.6666692495346,19.06124496459961 115.9120305776596,74.42770385742188 174.51584374904633,75.62196350097656 127.8063176870346,111.03456115722656 144.78011071681976,167.13906860351562 96.6666692495346,133.65884399414062 48.5532888174057,167.13906860351562 65.5270437002182,111.03456115722656 18.817559599876404,75.62196350097656 77.4213079214096,74.42770385742188 96.6666692495346,19.06124496459961 115.9120305776596,74.42770385742188 " strokeWidth="5" strokecolor="#000000" fill="#ffffff" orient="point" r2="32.742166" r="81.855416" point="5" shape="star" id="svg_8" cy="212.999999" cx="123.500018"/>
  <polygon id="svg_11" stroke-width="5" stroke="#000000" points="100.50000286102295,26.1277437210083 119.74536418914795,81.49421405792236 178.34914684295654,82.68847370147705 131.63965129852295,118.10105609893799 148.61339855194092,174.20557117462158 100.50000286102295,140.72536182403564 52.386595726013184,174.20557117462158 69.36035442352295,118.10105609893799 22.650879859924316,82.68847370147705 81.25464153289795,81.49421405792236 100.50000286102295,26.1277437210083 119.74536418914795,81.49421405792236 " strokeWidth="5" strokecolor="#000000" fill="#ffffff" orient="point" r2="32.742166" r="81.855416" point="5" shape="star" cy="212.999999" cx="123.500018"/>
  <text xml:space="preserve" text-anchor="middle" font-family="serif" font-size="24" id="svg_4" y="112.166665" x="104.250018" stroke-width="0" stroke="#000000" fill="#000000">SCD</text>
 </g>
</svg>